<?xml version="1.0" encoding="UTF-8"?>
<svg width="13px" height="15px" viewBox="0 0 13 15" version="1.1" xmlns="http://www.w3.org/2000/svg" xmlns:xlink="http://www.w3.org/1999/xlink">
    <!-- Generator: Sketch 57.1 (83088) - https://sketch.com -->
    <title>密码</title>
    <desc>Created with Sketch.</desc>
    <g id="页面1" stroke="none" stroke-width="1" fill="none" fill-rule="evenodd">
        <g id="Apple-TV备份" transform="translate(-783.000000, -589.000000)">
            <g id="密码" transform="translate(782.000000, 589.000000)">
                <rect id="矩形" x="0" y="0" width="15" height="15"></rect>
                <path d="M11.2009633,6.375 C11.8043284,6.375 12.293376,6.87875 12.293376,7.5 L12.293376,12.75 C12.293376,13.37125 11.8043284,13.875 11.2009633,13.875 L3.1896617,13.875 C2.58629662,13.875 2.09724901,13.37125 2.09724901,12.75 L2.09724901,7.5 C2.09724901,6.87875 2.58629664,6.375 3.1896617,6.375 L11.2009633,6.375 Z M11.2009633,5.25 L3.1896617,5.25 C1.98293155,5.25 1.0048363,6.2575 1.0048363,7.5 L1.0048363,12.75 C1.0048363,13.9925 1.98293155,15 3.1896617,15 L11.2009633,15 C12.4076934,15 13.3857887,13.9925 13.3857887,12.75 L13.3857887,7.5 C13.3857887,6.2575 12.4076935,5.25 11.2009633,5.25 Z M7.1953125,1.125 C8.60302679,1.125 9.7441379,2.3 9.7441379,3.75 L9.7441379,5.25 L4.6464871,5.25 L4.6464871,3.75 C4.6464871,2.3 5.78759821,1.125 7.1953125,1.125 Z M7.1953125,0 C5.18423313,0 3.5536617,1.67916667 3.5536617,3.75 L3.5536617,6.375 L10.8369633,6.375 L10.8369633,3.75 C10.8369633,1.67916667 9.20680456,0 7.1953125,0 Z M7.1953125,11.8125 C6.89362996,11.8125 6.64889981,11.5608333 6.64889981,11.25 L6.64889981,9 C6.64889981,8.68916666 6.89362997,8.4375 7.1953125,8.4375 C7.49699504,8.4375 7.74172519,8.68916666 7.74172519,9 L7.74172519,11.25 C7.74172519,11.5608333 7.49699503,11.8125 7.1953125,11.8125 Z" id="形状" fill="#C2C6CE" fill-rule="nonzero"></path>
            </g>
        </g>
    </g>
</svg>