<?xml version="1.0" encoding="UTF-8"?>
<svg width="12px" height="15px" viewBox="0 0 12 15" version="1.1" xmlns="http://www.w3.org/2000/svg" xmlns:xlink="http://www.w3.org/1999/xlink">
    <!-- Generator: Sketch 57.1 (83088) - https://sketch.com -->
    <title>手机</title>
    <desc>Created with Sketch.</desc>
    <g id="页面1" stroke="none" stroke-width="1" fill="none" fill-rule="evenodd">
        <g id="Apple-TV备份" transform="translate(-784.000000, -473.000000)">
            <g id="手机" transform="translate(782.000000, 473.000000)">
                <rect id="矩形" x="0" y="0" width="15" height="15"></rect>
                <path d="M12.046,0.015 L3.526,0.015 C2.694,0.015 2.014,0.695 2.014,1.527 L2.014,13.367 C2.014,14.199 2.694,14.879 3.526,14.879 L12.046,14.879 C12.878,14.879 13.558,14.199 13.558,13.367 L13.558,1.527 C13.558,0.695 12.878,0.015 12.046,0.015 Z M3.526,1.087 L12.046,1.087 C12.294,1.087 12.486,1.287 12.486,1.527 L12.486,9.375 L3.086,9.375 L3.086,1.527 C3.086,1.287 3.286,1.087 3.526,1.087 Z M12.046,13.815 L3.526,13.815 C3.278,13.815 3.086,13.615 3.086,13.375 L3.086,10.455 L12.494,10.455 L12.494,13.375 C12.486,13.615 12.294,13.815 12.046,13.815 Z M9.15,12.135 C9.15,12.431 8.91,12.671 8.614,12.671 L6.958,12.671 C6.66197539,12.671 6.42200003,12.4310246 6.42200003,12.135 C6.42200003,11.8389754 6.66197539,11.599 6.958,11.599 L8.622,11.599 C8.91,11.599 9.15,11.839 9.15,12.135 L9.15,12.135 Z" id="形状" fill="#C2C6CE" fill-rule="nonzero"></path>
            </g>
        </g>
    </g>
</svg>