<?xml version="1.0" encoding="UTF-8"?>
<svg width="16px" height="14px" viewBox="0 0 16 14" version="1.1" xmlns="http://www.w3.org/2000/svg" xmlns:xlink="http://www.w3.org/1999/xlink">
    <title>排序</title>
    <g id="页面-1" stroke="none" stroke-width="1" fill="none" fill-rule="evenodd">
        <g id="排序" fill="#5A5A68" fill-rule="nonzero" stroke="currentColor">
            <path d="M13.1885937,11.1110938 L14.1185937,10.1810938 C14.361599,9.93808846 14.7555885,9.93808846 14.9985937,10.1810938 C15.241599,10.424099 15.241599,10.8180885 14.9985937,11.0610937 L12.9985937,13.0610937 C12.8212235,13.2397675 12.5534173,13.2934425 12.3208913,13.1969223 C12.0883653,13.1004021 11.9372936,12.8728532 11.9385854,12.6210938 L11.9385854,0.62109375 C11.9784919,0.306300439 12.2462821,0.0703086476 12.5635937,0.0703086476 C12.8809054,0.0703086476 13.1486956,0.306300439 13.1885937,0.62109375 L13.1885937,11.1110938 Z M0.55859375,1.25109375 C0.243800439,1.21119564 0.00780864759,0.943405408 0.00780864759,0.62609375 C0.00780864759,0.308782092 0.243800439,0.0409918618 0.55859375,0.00109375 L9.55859375,0.00109375 C9.87338706,0.0409918618 10.1093789,0.308782092 10.1093789,0.62609375 C10.1093789,0.943405408 9.87338706,1.21119564 9.55859375,1.25109375 L0.55859375,1.25109375 Z M0.55859375,7.25109375 C0.243800439,7.21119564 0.00780864759,6.94340541 0.00780864759,6.62609375 C0.00780864759,6.30878209 0.243800439,6.04099186 0.55859375,6.00109375 L9.55859375,6.00109375 C9.87338706,6.04099186 10.1093789,6.30878209 10.1093789,6.62609375 C10.1093789,6.94340541 9.87338706,7.21119564 9.55859375,7.25109375 L0.55859375,7.25109375 Z M0.55859375,13.2510938 C0.243800439,13.2111956 0.00780864759,12.9434054 0.00780864759,12.6260937 C0.00780864759,12.3087821 0.243800439,12.0409919 0.55859375,12.0010937 L9.55859375,12.0010937 C9.87338706,12.0409919 10.1093789,12.3087821 10.1093789,12.6260937 C10.1093789,12.9434054 9.87338706,13.2111956 9.55859375,13.2510938 L0.55859375,13.2510938 Z" id="形状"></path>
        </g>
    </g>
</svg>